<?xml version="1.0" encoding="UTF-8"?><svg id="Layer_1" xmlns="http://www.w3.org/2000/svg" viewBox="0 0 3266.19 3266.19"><defs><style>.cls-1{fill:#dde6ed;stroke-width:0px;}</style></defs>
<path class="cls-1" d="m599.16,1372.88c-54.68-11.14-118.96-24.08-183.17-37.37-106.07-21.94-212.13-43.91-318.12-66.25-70.08-14.77-88.13-59.4-48.35-118.27,121.39-179.66,242.81-359.3,364.21-538.95,3.5-5.18,6.95-10.4,10.59-15.49,17.77-24.86,38.41-45.48,72.46-37.94,34.45,7.63,47.06,33.32,53.11,65.66,41.53,222.11,83.91,444.07,125.66,666.14,9.42,50.09-18.16,83.67-76.38,82.47Z"/>
<path class="cls-1" d="m91.93,1635.47c-1.64-52.84,1.47-102.71,6.02-152.6,1.97-21.59,9.4-29.1,31.88-24.38,138.68,29.12,277.49,57.63,416.44,85.42,24.66,4.93,31.47,17.73,30.35,41.37-5.36,113.24,6.04,224.65,37.06,334.06,62.61,220.85,184.18,402.37,363.21,545.26,157.16,125.43,336.66,200.53,536.07,221.92,301.94,32.39,571.65-48.55,806.14-243,44.26-36.7,84.93-77.05,121.96-121.1,6.43-7.64,11.98-21.2,22.7-19.02,12.03,2.44,8.98,17.1,10.8,26.91,20.33,109.6,41.13,219.13,60.41,328.92,9.59,54.59,26.88,105.05,66.08,145.7,13.63,14.13,10.96,23.28-3.97,34.98-224.17,175.5-475.86,285.43-759.01,322.22-375.84,48.83-725.08-26.73-1041.71-233.73-370.22-242.04-596.61-583.9-680.15-1019.05-7.45-38.83-13.32-78.09-17.39-117.41-5.47-52.85-9.76-105.91-6.88-156.45Z"/>
<path class="cls-1" d="m2695.09,1639.97c1.28-429.34-252.7-816.59-646.95-983.52-115.99-49.11-237.34-76-364.03-81.16-329.72-13.44-604.8,104.03-831.35,340.91-10.79,11.29-20.33,23.76-30.83,35.34-5.39,5.95-10.17,16-19.33,13.19-8.69-2.67-8.5-13.28-10.04-21.46-20.71-109.53-42.2-218.92-61.93-328.62-10.3-57.25-25.01-112.04-65.09-156.49-11.99-13.29-5.76-21.31,5.7-30.42,64.63-51.36,132.51-97.98,204.35-138.54,152.06-85.83,314.15-145.71,486.09-175.04,359.8-61.38,701.9-7.95,1022.06,169.8,273.86,152.04,482.41,368.91,625.59,647.2,99.01,192.43,153.85,397.37,166.39,614.08,4.24,73.25.99,145.84-2.84,218.62-2.36,44.9-5.96,46.2-48.44,37.16-127.39-27.11-254.79-54.14-382.17-81.28q-47.57-10.14-47.19-57.89c.05-7.3,0-14.6,0-21.9Z"/>
<path class="cls-1" d="m2667.94,1887.18c54.62,11.44,118.83,24.72,182.97,38.36,105.95,22.52,211.89,45.06,317.75,67.97,70,15.15,87.81,59.87,47.71,118.53-122.36,179-244.75,357.98-367.12,536.97-3.53,5.16-7.01,10.37-10.67,15.43-17.9,24.76-38.65,45.27-72.66,37.54-34.41-7.82-46.88-33.57-52.75-65.95-40.33-222.33-81.5-444.51-122.05-666.81-9.15-50.14,18.62-83.57,76.83-82.06Z"/></svg>